<svg width="1200" height="630" viewBox="0 0 1200 630" fill="none" xmlns="http://www.w3.org/2000/svg">
  <rect width="1200" height="630" fill="#FFFFFF"/>
  <circle cx="162" cy="68" r="190" fill="#4072FF" fill-opacity="0.08"/>
  <circle cx="934" cy="32" r="180" fill="#5FD500" fill-opacity="0.08"/>
  <circle cx="1170" cy="92" r="160" fill="#FF6548" fill-opacity="0.08"/>
  <rect x="94" y="96" width="1012" height="438" rx="56" fill="#FFFFFF" stroke="#EEEEEE" stroke-width="2"/>
  <g transform="translate(110 126) rotate(-8)">
    <rect width="260" height="330" rx="34" fill="#FFFFFF" stroke="#7E5AF6" stroke-width="16"/>
    <rect x="24" y="28" width="212" height="274" rx="24" fill="#FBFBFD" stroke="#EFEFF6" stroke-width="2"/>
    <g fill="#7E5AF6">
      <rect x="55" y="80" width="25" height="25" rx="6"/>
      <rect x="88" y="80" width="25" height="25" rx="6"/>
      <rect x="121" y="80" width="25" height="25" rx="6"/>
      <rect x="88" y="113" width="25" height="25" rx="6"/>
      <rect x="121" y="113" width="25" height="25" rx="6"/>
      <rect x="154" y="113" width="25" height="25" rx="6"/>
      <rect x="121" y="146" width="25" height="25" rx="6"/>
      <rect x="154" y="146" width="25" height="25" rx="6"/>
      <rect x="187" y="146" width="25" height="25" rx="6"/>
    </g>
    <g fill="#EFEFF6">
      <rect x="55" y="179" width="25" height="25" rx="6"/>
      <rect x="88" y="179" width="25" height="25" rx="6"/>
      <rect x="121" y="179" width="25" height="25" rx="6"/>
      <rect x="154" y="179" width="25" height="25" rx="6"/>
      <rect x="187" y="179" width="25" height="25" rx="6"/>
    </g>
  </g>
  <g transform="translate(440 92)">
    <rect width="320" height="390" rx="42" fill="#FFFFFF" stroke="#57B1FF" stroke-width="18"/>
    <rect x="30" y="34" width="260" height="322" rx="30" fill="#FBFBFD" stroke="#EFEFF6" stroke-width="2"/>
    <g fill="#57B1FF">
      <rect x="82" y="90" width="30" height="30" rx="7"/>
      <rect x="120" y="90" width="30" height="30" rx="7"/>
      <rect x="158" y="90" width="30" height="30" rx="7"/>
      <rect x="196" y="90" width="30" height="30" rx="7"/>
      <rect x="120" y="128" width="30" height="30" rx="7"/>
      <rect x="158" y="128" width="30" height="30" rx="7"/>
      <rect x="196" y="128" width="30" height="30" rx="7"/>
      <rect x="158" y="166" width="30" height="30" rx="7"/>
    </g>
    <text x="160" y="270" text-anchor="middle" font-family="Inter, Arial, sans-serif" font-size="34" font-weight="800" fill="#242424">TodayCard</text>
    <text x="160" y="308" text-anchor="middle" font-family="Inter, Arial, sans-serif" font-size="18" font-weight="600" fill="#8B8B8B">Ask. Draw. Decide.</text>
  </g>
  <g transform="translate(818 132) rotate(8)">
    <rect width="260" height="330" rx="34" fill="#FFFFFF" stroke="#2FC9B6" stroke-width="16"/>
    <rect x="24" y="28" width="212" height="274" rx="24" fill="#FBFBFD" stroke="#EFEFF6" stroke-width="2"/>
    <g fill="#2FC9B6">
      <rect x="72" y="86" width="25" height="25" rx="6"/>
      <rect x="105" y="86" width="25" height="25" rx="6"/>
      <rect x="138" y="86" width="25" height="25" rx="6"/>
      <rect x="105" y="119" width="25" height="25" rx="6"/>
      <rect x="138" y="119" width="25" height="25" rx="6"/>
      <rect x="171" y="119" width="25" height="25" rx="6"/>
      <rect x="72" y="152" width="25" height="25" rx="6"/>
      <rect x="105" y="152" width="25" height="25" rx="6"/>
      <rect x="138" y="152" width="25" height="25" rx="6"/>
    </g>
    <g fill="#EFEFF6">
      <rect x="72" y="185" width="25" height="25" rx="6"/>
      <rect x="105" y="185" width="25" height="25" rx="6"/>
      <rect x="138" y="185" width="25" height="25" rx="6"/>
      <rect x="171" y="185" width="25" height="25" rx="6"/>
    </g>
  </g>
  <text x="600" y="574" text-anchor="middle" font-family="Inter, Arial, sans-serif" font-size="28" font-weight="700" fill="#222222">AI decision cards for tiny choices</text>
</svg>
