<svg width="240" height="240" viewBox="0 0 240 240" fill="none" xmlns="http://www.w3.org/2000/svg">
<rect width="240" height="240" rx="45" fill="#57B1FF"/>
<rect x="9" y="9" width="222" height="222" rx="38" fill="#FFFEFF"/>
<rect x="32" y="40" width="30" height="30" rx="6" fill="#57B1FF"/>
<rect x="68" y="40" width="30" height="30" rx="6" fill="#57B1FF"/>
<rect x="105" y="40" width="30" height="30" rx="6" fill="#57B1FF"/>
<rect x="105" y="83" width="30" height="30" rx="6" fill="#57B1FF"/>
<rect x="68" y="83" width="30" height="30" rx="6" fill="#EFEEF8"/>
<rect x="31" y="83" width="30" height="30" rx="6" fill="#EFEEF8"/>
<rect x="179" y="83" width="30" height="30" rx="6" fill="#EFEEF8"/>
<rect x="68" y="127" width="30" height="30" rx="6" fill="#EFEEF8"/>
<rect x="31" y="127" width="30" height="30" rx="6" fill="#EFEEF8"/>
<rect x="142" y="83" width="30" height="30" rx="6" fill="#EFEEF8"/>
<rect x="68" y="170" width="30" height="30" rx="6" fill="#EFEEF8"/>
<rect x="31" y="170" width="30" height="30" rx="6" fill="#EFEEF8"/>
<rect x="105" y="127" width="30" height="30" rx="6" fill="#57B1FF"/>
<rect x="179" y="127" width="30" height="30" rx="6" fill="#EFEEF8"/>
<rect x="142" y="127" width="30" height="30" rx="6" fill="#EFEEF8"/>
<rect x="105" y="170" width="30" height="30" rx="6" fill="#57B1FF"/>
<rect x="179" y="170" width="30" height="30" rx="6" fill="#EFEEF8"/>
<rect x="142" y="170" width="30" height="30" rx="6" fill="#EFEEF8"/>
<rect x="142" y="40" width="30" height="30" rx="6" fill="#57B1FF"/>
<rect x="178" y="40" width="30" height="30" rx="6" fill="#57B1FF"/>
</svg>
